#!OML:ASF F:\VICON\USERDATA\INSTALL\rory3\rory3.ASF
:FULLY-SPECIFIED
:DEGREES
209
root -4.6988 17.83 8.9563 -4.5839 58.5148 -4.66482
lowerback 10.6702 2.8556 1.70677
upperback 0.179668 4.03812 0.280253
thorax -5.69355 1.94851 -1.28406
lowerneck -20.3068 -5.61443 -11.9757
upperneck 29.729 -6.34567 8.39024
head 14.2918 -2.84443 4.32838
rclavicle 6.31949e-014 4.96962e-016
rhumerus -29.4783 -11.513 -77.7984
rradius 34.7672
rwrist 2.43961
rhand -18.1589 8.18516
rfingers 7.12502
rthumb 8.11702 -21.6389
lclavicle 6.31949e-014 4.96962e-016
lhumerus -39.1427 11.2777 81.2236
lradius 22.9551
lwrist -14.0366
lhand -14.3564 27.1982
lfingers 7.12502
lthumb 11.7855 56.8466
rfemur 15.3131 -1.82864 21.8395
rtibia 19.2248
rfoot -8.06345 -13.841
rtoes -12.3201
lfemur -18.9596 3.28248 -23.4909
ltibia 13.6389
lfoot 3.75195 8.11234
ltoes 12.0678
210
root -4.5562 17.8442 9.01628 -3.78446 59.0411 -3.74702
lowerback 10.453 2.83786 1.23612
upperback 0.163159 3.94604 0.163212
thorax -5.61488 1.91551 -1.11786
lowerneck -20.2023 -5.64342 -12.1136
upperneck 29.8032 -6.39308 8.52075
head 14.3203 -2.86375 4.40254
rclavicle 4.10615e-014 4.07509e-015
rhumerus -29.6337 -11.9894 -77.6878
rradius 34.7296
rwrist 2.70809
rhand -18.3774 8.04365
rfingers 7.12502
rthumb 7.90611 -21.7885
lclavicle 4.10615e-014 4.07509e-015
lhumerus -39.1444 11.748 80.9535
lradius 22.8474
lwrist -13.6515
lhand -14.8683 26.6605
lfingers 7.12502
lthumb 11.2918 56.3365
rfemur 14.7453 -2.18317 21.1583
rtibia 21.18
rfoot -7.40731 -13.7033
rtoes -12.7212
lfemur -18.3371 3.81744 -24.3298
ltibia 13.1353
lfoot 4.42809 6.10881
ltoes 14.0309
211
root -4.41251 17.8589 9.07618 -3.29836 59.5556 -3.14938
lowerback 10.2832 2.8009 1.00788
upperback 0.182548 3.85947 0.0312137
thorax -5.50699 1.87896 -1.10487
lowerneck -20.294 -5.67927 -12.1744
upperneck 29.9466 -6.44793 8.61656
head 14.4187 -2.87914 4.44916
rclavicle -8.0309e-014 1.2921e-015
rhumerus -29.7447 -12.6873 -77.6344
rradius 34.6529
rwrist 2.83042
rhand -18.4249 8.18481
rfingers 7.12502
rthumb 7.86028 -21.6491
lclavicle -8.0309e-014 1.2921e-015
lhumerus -39.1312 11.5015 80.9753
lradius 22.966
lwrist -13.1219
lhand -15.4207 27.1098
lfingers 7.12502
lthumb 10.759 56.8143
rfemur 14.1702 -2.47448 20.6949
rtibia 23.1827
rfoot -6.54097 -13.646
rtoes -13.0969
lfemur -17.6654 4.33793 -24.9768
ltibia 12.794
lfoot 4.80956 4.72742
ltoes 14.8789
212
root -4.26761 17.8769 9.1289 -3.08789 60.1215 -2.93389
lowerback 10.1316 2.709 1.006
upperback 0.140563 3.7321 -0.0249755
thorax -5.46507 1.81591 -1.13678
lowerneck -20.337 -5.66155 -12.1397
upperneck 30.0853 -6.41486 8.56958
head 14.4819 -2.86579 4.4359
rclavicle 3.61043e-014 2.28602e-015
rhumerus -29.8848 -13.2671 -77.5448
rradius 34.4711
rwrist 2.8947
rhand -18.5395 8.34157
rfingers 7.12502
rthumb 7.74963 -21.4964
lclavicle 3.61043e-014 2.28602e-015
lhumerus -39.1706 11.6617 80.9091
lradius 23.0035
lwrist -13.0589
lhand -15.5677 27.4797
lfingers 7.12502
lthumb 10.6172 57.1914
rfemur 13.4625 -2.83492 20.405
rtibia 25.2308
rfoot -5.46961 -13.5327
rtoes -12.9459
lfemur -17.0548 4.23935 -25.3024
ltibia 12.6036
lfoot 4.85395 4.529
ltoes 14.0905
213
root -4.12646 17.8986 9.17729 -3.10666 60.7457 -2.89578
lowerback 10.1291 2.60933 1.1078
upperback 0.0724838 3.60898 -0.0714166
thorax -5.52867 1.75067 -1.22637
lowerneck -20.2124 -5.64095 -11.9433
upperneck 30.1677 -6.41859 8.42125
head 14.4763 -2.86519 4.34321
rclavicle -3.88376e-014 6.95746e-015
rhumerus -30.1787 -14.0152 -77.4432
rradius 34.3587
rwrist 3.17708
rhand -18.5622 8.25206
rfingers 7.12502
rthumb 7.72771 -21.5867
lclavicle -3.88376e-014 6.95746e-015
lhumerus -39.2185 11.9663 80.706
lradius 22.9398
lwrist -13.2852
lhand -15.1272 26.5007
lfingers 7.12502
lthumb 11.0421 56.1902
rfemur 12.7044 -3.32754 20.1597
rtibia 27.3375
rfoot -4.01918 -13.1299
rtoes -12.496
lfemur -16.4046 4.02058 -25.5124
ltibia 12.4617
lfoot 4.88311 4.42595
ltoes 12.6854
214
root -3.98993 17.9153 9.22773 -3.22162 61.3476 -2.86156
lowerback 10.2136 2.51632 1.09618
upperback 0.0447046 3.48653 -0.048331
thorax -5.6106 1.68975 -1.18349
lowerneck -20.1363 -5.63296 -11.916
upperneck 30.2845 -6.4075 8.3708
head 14.507 -2.86408 4.32535
rclavicle 5.88589e-014 -4.77083e-015
rhumerus -30.497 -14.603 -77.3082
rradius 34.3275
rwrist 3.46201
rhand -18.5476 8.27895
rfingers 7.12502
rthumb 7.74179 -21.5593
lclavicle 5.88589e-014 -4.77083e-015
lhumerus -39.2701 12.1356 80.6166
lradius 22.9569
lwrist -13.4164
lhand -14.8309 25.8651
lfingers 7.12502
lthumb 11.3279 55.5392
rfemur 11.9557 -3.76706 19.9368
rtibia 29.5192
rfoot -2.24808 -12.7656
rtoes -10.9701
lfemur -15.6729 4.00928 -25.7308
ltibia 12.2849
lfoot 4.85465 4.14255
ltoes 12.8706
215
root -3.85113 17.934 9.27873 -3.06758 61.9421 -2.56644
lowerback 10.1793 2.42182 0.913544
upperback 0.0712222 3.34105 -0.0113919
thorax -5.57963 1.62429 -1.01918
lowerneck -20.2513 -5.66845 -12.0098
upperneck 30.4585 -6.3958 8.31515
head 14.6116 -2.87552 4.32719
rclavicle -4.19311e-014 4.77083e-015
rhumerus -30.7285 -15.0708 -77.1167
rradius 34.2976
rwrist 3.68115
rhand -18.5325 8.32981
rfingers 7.12502
rthumb 7.7564 -21.5079
lclavicle -4.19311e-014 4.77083e-015
lhumerus -39.2218 12.2379 80.7216
lradius 23.0606
lwrist -13.3385
lhand -14.9198 26.2273
lfingers 7.12502
lthumb 11.2421 55.906
rfemur 11.1072 -4.15213 19.5832
rtibia 31.764
rfoot -0.197846 -12.303
rtoes -8.82166
lfemur -14.9417 4.30231 -26.1177
ltibia 12.0363
lfoot 4.73687 3.38644
ltoes 13.6757
216
root -3.71346 17.9526 9.32244 -2.96836 62.5307 -2.31902
lowerback 10.1802 2.30638 0.894611
upperback 0.142986 3.18556 -0.00944084
thorax -5.509 1.5497 -0.981844
lowerneck -20.4289 -5.68732 -12.1716
upperneck 30.5461 -6.35679 8.35063
head 14.6947 -2.8704 4.38063
rclavicle -3.45947e-014 -1.39149e-014
rhumerus -30.8358 -15.3159 -77.0623
rradius 34.2799
rwrist 3.51553
rhand -18.4481 8.14437
rfingers 7.12502
rthumb 7.83783 -21.6903
lclavicle -3.45947e-014 -1.39149e-014
lhumerus -39.0293 12.3007 80.8856
lradius 23.1774
lwrist -13.3903
lhand -14.7254 26.4211
lfingers 7.12502
lthumb 11.4295 56.0896
rfemur 10.1431 -4.5996 19.1937
rtibia 34.0335
rfoot 2.28394 -11.7923
rtoes -5.32818
lfemur -14.1963 4.70455 -26.4838
ltibia 11.754
lfoot 4.58548 2.39447
ltoes 14.2868
217
root -3.57695 17.969 9.36719 -2.99769 63.0003 -2.20938
lowerback 10.1899 2.28191 0.914344
upperback 0.211887 3.15766 0.0255894
thorax -5.44354 1.53722 -0.950825
lowerneck -20.5092 -5.74044 -12.3523
upperneck 30.5415 -6.37476 8.40157
head 14.7242 -2.89093 4.42943
rclavicle -1.51573e-014 9.93923e-017
rhumerus -31.0702 -15.565 -76.9852
rradius 34.4557
rwrist 3.15806
rhand -18.325 8.10689
rfingers 7.12502
rthumb 7.95665 -21.7234
lclavicle -1.51573e-014 9.93923e-017
lhumerus -38.83 12.0191 81.2444
lradius 23.3396
lwrist -13.303
lhand -14.4744 26.544
lfingers 7.12502
lthumb 11.6716 56.1989
rfemur 9.04299 -4.91432 18.8731
rtibia 36.3176
rfoot 4.93113 -11.6318
rtoes 0.273658
lfemur -13.4394 4.93088 -26.7202
ltibia 11.4768
lfoot 4.47893 1.60445
ltoes 14.6387
218
root -3.43981 17.9804 9.41477 -2.96805 63.3562 -1.98352
lowerback 10.2086 2.27645 0.824823
upperback 0.284791 3.14067 0.0310203
thorax -5.38294 1.53249 -0.891426
lowerneck -20.5321 -5.74982 -12.3244
upperneck 30.4897 -6.36863 8.32856
head 14.7007 -2.89408 4.39201
rclavicle 2.63079e-015 -5.46658e-016
rhumerus -31.4269 -15.7376 -77.0081
rradius 34.6926
rwrist 2.78478
rhand -18.252 8.13293
rfingers 7.12502
rthumb 8.0271 -21.6946
lclavicle 2.63079e-015 -5.46658e-016
lhumerus -38.6418 11.9053 81.4423
lradius 23.4487
lwrist -13.3769
lhand -14.6549 26.6357
lfingers 7.12502
lthumb 11.4976 56.3004
rfemur 7.97556 -5.13908 18.4862
rtibia 38.6262
rfoot 7.4544 -11.3739
rtoes 3.90782
lfemur -12.6006 4.8585 -26.9257
ltibia 11.2049
lfoot 4.29857 1.35236
ltoes 15.1191
219
root -3.30839 17.9895 9.46177 -2.83616 63.7272 -1.65443
lowerback 10.2859 2.26354 0.679487
upperback 0.349071 3.10695 0.0206914
thorax -5.36652 1.52011 -0.81772
lowerneck -20.6076 -5.77015 -12.2987
upperneck 30.4335 -6.37226 8.25474
head 14.6883 -2.90121 4.3521
rclavicle -3.89556e-014 7.0817e-015
rhumerus -31.7408 -15.8359 -77.0538
rradius 34.8736
rwrist 2.57892
rhand -18.2474 8.00444
rfingers 7.12502
rthumb 8.03161 -21.823
lclavicle -3.89556e-014 7.0817e-015
lhumerus -38.4023 11.702 81.6616
lradius 23.5897
lwrist -13.4104
lhand -14.5823 26.5437
lfingers 7.12502
lthumb 11.5676 56.2045
rfemur 6.85833 -5.28814 18.1096
rtibia 40.9898
rfoot 9.65539 -11.0687
rtoes 5.63222
lfemur -11.7462 4.95841 -27.2032
ltibia 10.8152
lfoot 4.1384 1.06599
ltoes 15.2356
220
root -3.17753 18.0006 9.50799 -2.41855 64.0639 -1.11414
lowerback 10.2308 2.27318 0.448268
upperback 0.43606 3.08942 -0.0406792
thorax -5.25336 1.51814 -0.744699
lowerneck -20.7554 -5.80076 -12.295
upperneck 30.3598 -6.41444 8.29516
head 14.6951 -2.91065 4.35606
rclavicle -2.31755e-014 4.5472e-015
rhumerus -31.9203 -15.9161 -77.1486
rradius 35.0009
rwrist 2.49559
rhand -17.7825 7.99979
rfingers 7.12502
rthumb 8.48026 -21.8099
lclavicle -2.31755e-014 4.5472e-015
lhumerus -38.0391 11.1572 81.9938
lradius 23.8033
lwrist -13.056
lhand -14.5614 26.4283
lfingers 7.12502
lthumb 11.5878 56.0879
rfemur 5.57491 -5.35217 17.6905
rtibia 43.4003
rfoot 11.8662 -10.6835
rtoes 5.54587
lfemur -10.8069 4.96424 -27.5658
ltibia 10.0853
lfoot 4.13744 0.78004
ltoes 15.2617
221
root -3.04796 18.0149 9.55174 -1.59137 64.3942 -0.0982082
lowerback 10.2429 2.27945 0.0181003
upperback 0.497628 3.04319 -0.13766
thorax -5.21325 1.50532 -0.597026
lowerneck -20.8159 -5.77277 -12.1712
upperneck 30.2419 -6.36051 8.15365
head 14.6358 -2.89117 4.27909
rclavicle 3.58667e-014 5.76476e-015
rhumerus -32.077 -15.689 -77.313
rradius 35.1056
rwrist 2.15291
rhand -17.3365 8.10577
rfingers 7.12502
rthumb 8.91059 -21.6861
lclavicle 3.58667e-014 5.76476e-015
lhumerus -37.7385 10.4889 82.4195
lradius 24.1297
lwrist -12.4084
lhand -14.8619 26.8558
lfingers 7.12502
lthumb 11.298 56.5315
rfemur 4.24717 -5.4208 17.0379
rtibia 45.8396
rfoot 14.5553 -9.8354
rtoes 5.90325
lfemur -9.69012 5.13262 -28.1458
ltibia 9.08318
lfoot 4.229 0.289661
ltoes 16.4918
